<svg xmlns="http://www.w3.org/2000/svg" width="150" height="150"><g fill="#FFF"><path d="M147.53 75.57c0-3.686-.28-7.308-.82-10.846.333 1.873.685 3.68 1.19 5.288.556 4.183 2.1 5.558 2.1 5.56-.604-10.455-1.862-19.726-5.285-29.663-1.61-3.162-3.813-7.19-5.44-10.004-7.2-11.47-17.134-22.023-30.05-27.944.588.484-.248.395-.934.162l-.09-.223-1.144-.144c-.96-.417-.368-.648.46-.32-5.043-2.44-9.888-3.862-15.143-5.223-.468.43-2.755-.677-3.065-.08-.226-.14.01-.133.182-.218-3.783-.27-3.995-.364-7.345-1.45-14.683-1.708-29.213 1.37-42.17 7.888-13.037 6.84-23.545 17.48-30.785 30.44-.438 2.34-2.004 5.027-2.524 7.7l-.17-.257c-.536 2.232-1.078 2.618-2.41 5.218.28.127-.3 1.067.32.84.04 1.048-1.293 1.47-1.41 2.946-.176.002.297.047.068.3-.342 3.757-.09-.775-1.753 3.71C.126 65.8-.073 72.586.02 78.913c-.042-.393.352-.59.39.048-.786.653.334 2.123.066 3.255-.172-.072-.254-.6-.34-.89-.272 2.94.866 5.243.836 8.026.715 2.497.998 5.516 1.766 7.11-.406-.317.028 1.205.082 1.777 1.596 1.458 1.404 4.925 2.92 6.886l-.19-.005c2.91 6.464 6.87 13.223 11.973 18.622 2.765 3.08 5.53 6.996 9.335 9.675.755.412.354-.157.957.182.91.707-.2.228.087.584 2.105.97 4.055 3.35 6.575 4.716.368.043 1.072.415.965.082 2.295 2.32 6.598 3.415 9.316 5.2-.686-1.217 1.895.39 3.058.515.567.246.563.466.34.555 2.303.71 3.438 1.273 6.17 2.184 1.32.24 1.78-.112 3.295.406.825.866 3.232.816 4.752 1.195-.303-.552 1.715-.65 3.215-.205l-.566.626c4.945.34 12.173 1.153 17.906-.243l.474.347c5.86-1.273 11.823-1.94 16.93-4.772 1.524-.333 3.944-.98 5.29-1.723 1.734-1.224 2.426-1.51 3.437-2.622.68-.37 1.267-.272 1.585-.315 2.27-1.264 4.79-2.036 6.17-3.74l.268.24c1.453-1.565 3.648-3.597 5.676-4.805.283-.675 1.926-2.32.87-1.92.626-.665.84.046 1.277-.856l-.307.965c4.02-3.365 6.817-6.89 9.563-11.088 1.453-.765 2.764-3.914 4.468-6.21.665-1.55 2.373-3.935 2.21-5.397l.355.078c1.1-1.954 2.272-4.72 3.367-7.444.675-1.58.22-1.732.448-3.053l.357.025c.144-1.305-.166-1.866-.388-2.398.177-.643.344-1.29.502-1.942.055-.152.117-.31.222-.52-.08 1.09.057 2.083.336 2.92.603-1.724.178-3.672.99-4.627.36-1.43.4-2.59.024-2.855.135-.06.372-.848.44-.11.156-1.104.224-1.826.138-2.518-.035.212-.134.498-.157.738-.235-.513-.128-1.392-.463-1.508.056-.468.12-.933.167-1.402.32-.047.36 1.33.664.574l-.532-2.29c.133-1.79.223-3.59.223-5.413zM61.473 4.79c.063-.014.127-.026.2-.035-.068.013-.134.023-.2.035zm-36.7 18.77l.034-.072c0 .01.012.015.018.022l-.053.05zm121.573 39.086c-.508-2.78-1.16-5.508-1.98-8.167.967 2.564 1.497 5.396 1.98 8.166zm-2.84-10.737c-.416-1.188-.858-2.363-1.337-3.52.44.865.87 1.696 1.274 2.445.408.815.23.966.064 1.074zm-22.74-32.322c2.69 1.574 4.288 4.527 6.613 5.358l.886.275c.36.66.083.84.34 1.36.633.235 1.948 2 2.505 1.998.074.363-.282.058-.378.152.907 1.07 2.32 2.032 3.043 3.168l-.42-.216c1.346 2.134 2.66 4.54 3.93 6.978-4.92-8.17-11.42-15.292-19.086-20.947 1 .623 1.98 1.226 2.924 1.768.128.228-.17.11-.358.108zm-13.58-8.78c.062.093.067.17.05.238-.104-.052-.205-.106-.31-.158.104-.012.194-.034.26-.08zm-18.04-5.894c-.197-.04-.4-.07-.598-.105.18.017.357.033.538.052.025.02.038.034.06.052zm-22.93-.847l-.43.055c.134-.032.256-.063.35-.094.02.017.057.024.08.04zm-6.37 1.037c-.222.047-.44.103-.66.15.192-.095.393-.185.564-.3.063.045.09.096.094.15zM52.52 6.958l-.104.133c-.374.122-.742.248-1.112.375.088-.178.32-.348 1.217-.507zm-14.037 6.34c-.306.177-.62.345-.924.527-.003-.005 0-.01-.005-.016.444-.305.73-.45.928-.513zm-7.68 4.315c.486.053-.512.356-.484.662l1.095-.34c-1.387 1.036-2.723 2.13-4.03 3.26.238-.45.46-.884.717-1.297.536-.382 2.138-1.807 2.702-2.285zm115.17 72.843c.078-.368.146-.74.22-1.11-.016.39-.07.764-.22 1.11z"/><path d="M148.416 76.67c.19-.543.055-.873-.14-1.1-.35 1.997.11-.58.14 1.1zM48.002 145.294c.064-.006.108-.027.154-.046-.268-.083-.54-.166-.845-.253l.692.3zM147.598 84.605c.016.088.02.177.03.265.022-.123.026-.226-.03-.265zM.972 89.358v-.007C.908 89.13.85 88.91.778 88.7l.194.66zM148.373 78.69c-.25-.13-.58.457-.853.56.334.95.55-.208.853-.56z"/></g><ellipse cx="74.958" cy="75.571" rx="67.977" ry="67.479"/><g fill="#FFF"><path d="M35.11 58.804c.173-.894.32-1.675.454-2.34.14-.665.258-1.284.362-1.858.103-.574.205-1.142.3-1.71.09-.563.194-1.194.294-1.895.116-.7.243-1.5.388-2.403.142-.902.315-1.985.527-3.25.045-.32.128-.526.252-.618.12-.095.414-.142.89-.142.188 0 .472.01.843.037.37.025.746.104 1.117.23.376.126.7.32.986.58.275.263.42.63.42 1.1 0 .27-.054.69-.158 1.253-.097.564-.236 1.215-.415 1.95-.18.73-.382 1.53-.62 2.39-.223.86-.456 1.728-.696 2.603-.235.88-.48 1.73-.73 2.557-.245.826-.472 1.572-.685 2.238-.217.667-.402 1.227-.574 1.68-.17.455-.29.752-.36.885-.1.19-.24.312-.428.382-.19.067-.37.1-.56.1h-2.422c-.442 0-.813-.084-1.105-.254-.3-.167-.547-.387-.745-.658-.193-.27-.35-.57-.457-.91-.108-.335-.182-.68-.216-1.037L30.497 48.36c-.1.74-.215 1.574-.344 2.5-.125.93-.264 1.876-.402 2.834-.15.96-.288 1.904-.422 2.833-.138.93-.27 1.775-.41 2.542-.134.77-.26 1.42-.382 1.96-.115.537-.223.893-.3 1.06-.09.19-.226.312-.41.382-.19.067-.388.1-.59.1h-2.423c-.42 0-.77-.08-1.057-.24-.278-.16-.51-.374-.695-.644-.187-.27-.345-.58-.46-.924-.117-.347-.222-.695-.307-1.05-.698-2.747-1.26-5.007-1.695-6.776-.428-1.772-.774-3.19-1.026-4.263-.258-1.072-.43-1.854-.524-2.354-.09-.493-.143-.855-.143-1.073 0-.286.09-.47.27-.555.176-.086.552-.127 1.134-.127.716 0 1.31.05 1.793.152.485.1.885.256 1.186.467.305.21.537.49.7.834.157.346.268.764.32 1.25 0 .07.002.168.028.294.016.125.033.334.056.62.03.288.068.677.13 1.172.057.5.14 1.16.233 1.987.094.826.208 1.85.354 3.074.148 1.224.32 2.688.522 4.39.188-1.03.337-1.86.445-2.496.108-.63.21-1.185.298-1.666.077-.48.16-.94.227-1.39.067-.448.147-1.004.24-1.67.09-.667.205-1.505.338-2.516.12-1.01.283-2.33.488-3.945.02-.116.093-.21.22-.28.123-.064.28-.114.465-.15.19-.035.4-.054.626-.064.23-.008.447-.01.65-.01.68 0 1.257.036 1.734.115.476.075.872.206 1.185.393.313.185.563.434.75.744.19.315.344.695.457 1.152.05.22.113.515.185.895.063.382.147.983.237 1.81.093.826.212 1.96.354 3.4.145 1.44.34 3.333.576 5.68zM46.147 62.57c-.96 0-1.634-.187-2.04-.556-.41-.37-.614-.9-.614-1.593 0-.336.022-.915.07-1.73.056-.818.125-1.75.21-2.796.082-1.044.167-2.148.255-3.314.082-1.163.174-2.257.253-3.285.088-1.028.156-1.935.205-2.708.05-.773.08-1.305.08-1.593 0-.252.128-.378.405-.378h8.97c.102 0 .198.024.277.076.088.05.134.143.134.28l-.107 1.492c-.03.504-.175.913-.42 1.225-.246.31-.75.47-1.516.47h-3.512l-.255 3.564h3.617c.102 0 .198.023.283.077.08.05.123.144.123.277l-.102 1.493c-.034.504-.175.914-.416 1.228-.25.31-.75.468-1.52.468h-2.216l-.28 3.766h5.606c.102 0 .193.032.278.09.087.06.13.147.13.265l-.102 1.492c-.034.506-.173.915-.422 1.227-.244.312-.754.468-1.514.468h-5.857zM76.817 58.804c.172-.894.325-1.675.46-2.34.132-.665.254-1.284.355-1.858.097-.574.2-1.142.293-1.71.093-.563.194-1.194.308-1.895.11-.7.237-1.5.384-2.403.145-.902.313-1.985.52-3.25.046-.32.136-.526.254-.618.12-.095.414-.142.894-.142.188 0 .467.01.84.037.372.025.745.104 1.12.23.376.126.703.32.98.58.28.263.425.63.425 1.1 0 .27-.055.69-.157 1.253-.104.564-.237 1.215-.42 1.95-.182.73-.38 1.53-.61 2.39-.225.86-.46 1.728-.702 2.603-.236.88-.478 1.73-.725 2.557-.25.826-.476 1.572-.686 2.238-.21.667-.407 1.227-.576 1.68-.17.455-.29.752-.357.885-.102.19-.243.312-.43.382-.193.067-.38.1-.564.1H76c-.438 0-.804-.084-1.106-.254-.296-.167-.542-.387-.738-.658-.19-.27-.348-.57-.458-.91-.108-.335-.182-.68-.22-1.037L72.213 48.36c-.107.74-.218 1.574-.348 2.5-.128.93-.26 1.876-.405 2.834-.148.96-.29 1.904-.427 2.833-.136.93-.27 1.775-.402 2.542-.136.77-.266 1.42-.384 1.96-.12.537-.22.893-.307 1.06-.077.19-.216.312-.403.382-.188.067-.38.1-.592.1h-2.418c-.426 0-.78-.08-1.055-.24-.283-.16-.513-.374-.7-.644-.187-.27-.34-.58-.462-.924-.116-.347-.218-.695-.303-1.05-.698-2.747-1.265-5.007-1.698-6.776-.432-1.772-.773-3.19-1.027-4.263-.255-1.072-.43-1.854-.53-2.354-.085-.493-.133-.855-.133-1.073 0-.286.085-.47.27-.555.172-.086.552-.127 1.125-.127.716 0 1.315.05 1.8.152.484.1.876.256 1.182.467.306.21.54.49.707.834.162.346.27.764.314 1.25 0 .07.012.168.03.294.018.125.038.334.058.62.03.288.074.677.13 1.172.058.5.137 1.16.23 1.987.09.826.21 1.85.357 3.074.142 1.224.317 2.688.525 4.39.18-1.03.332-1.86.445-2.496.104-.63.206-1.185.294-1.666l.23-1.39c.064-.448.144-1.004.237-1.67.097-.667.205-1.505.33-2.516.13-1.01.295-2.33.5-3.945.012-.116.09-.21.21-.28.134-.064.293-.114.475-.15.188-.035.393-.054.622-.064.232-.008.45-.01.652-.01.677 0 1.253.036 1.73.115.48.075.875.206 1.187.393.313.185.567.434.755.744.184.315.34.695.454 1.152.054.22.113.515.18.895.074.382.145.983.246 1.81.09.826.212 1.96.354 3.4.136 1.44.334 3.333.567 5.68zM92.688 44.614c.426 0 .778.078 1.06.24.282.16.516.37.698.63.19.262.34.56.46.897.125.34.226.685.307 1.04.684 2.73 1.242 4.98 1.686 6.755.436 1.77.79 3.198 1.044 4.285.248 1.088.43 1.893.533 2.415.1.522.156.885.156 1.087 0 .238-.06.397-.166.482-.11.084-.285.126-.523.126h-1.306c-.723 0-1.31-.087-1.74-.266-.435-.176-.77-.436-.998-.772-.23-.335-.392-.745-.493-1.226-.105-.48-.185-1.024-.252-1.63h-4.44l-.834 3.49c-.09.27-.283.405-.59.405h-1.345c-.276 0-.553-.027-.84-.086-.295-.06-.552-.156-.784-.29-.226-.135-.42-.31-.574-.52-.147-.21-.224-.47-.224-.772 0-.37.118-.978.354-1.82.234-.847.54-1.803.905-2.873.365-1.07.774-2.192 1.223-3.363.45-1.172.89-2.28 1.316-3.325.426-1.045.807-1.967 1.16-2.76.342-.792.61-1.348.8-1.667.136-.236.258-.377.373-.42.104-.04.316-.06.62-.06h2.415zM89.636 55.01h2.93l-1.073-6.678-1.857 6.677zM111.85 62.57c-.7 0-1.212-.1-1.553-.305-.343-.2-.584-.455-.745-.755-.876-1.805-1.705-3.533-2.48-5.186-.77-1.653-1.56-3.323-2.354-5.01.02 1.82.043 3.636.076 5.44.035 1.804.072 3.615.102 5.438 0 .252-.135.378-.41.378h-1.397c-.973 0-1.653-.19-2.053-.572-.396-.377-.596-.938-.596-1.68 0-.204.01-.545.04-1.026.023-.48.06-1.05.107-1.707.056-.653.11-1.377.166-2.16.065-.784.125-1.58.192-2.39.103-1.28.187-2.344.256-3.19.068-.84.13-1.55.172-2.134.038-.582.067-1.08.087-1.49.012-.414.03-.824.047-1.23 0-.25.137-.377.41-.377h2.034c.567 0 1.022.06 1.377.188.36.127.654.303.88.522.234.217.41.467.544.746.144.278.27.57.388.872.41 1.046.773 1.948 1.087 2.705.307.76.59 1.428.826 2 .238.573.444 1.07.624 1.49.178.424.345.813.5 1.165.146.354.306.696.456 1.023.148.33.315.69.48 1.076 0-.996 0-2.018-.01-3.073-.01-1.052-.016-2.083-.022-3.088-.007-1-.02-1.965-.026-2.895-.008-.927-.015-1.762-.015-2.504 0-.15.143-.225.435-.225h1.4c.557 0 1.01.053 1.332.163.334.113.595.27.785.48.183.212.31.468.363.773.062.304.09.648.09 1.036 0 .422-.026 1.066-.077 1.936-.05.868-.108 1.84-.178 2.922-.065 1.077-.146 2.196-.228 3.35-.085 1.156-.165 2.224-.243 3.2-.076.98-.145 1.81-.205 2.49-.06.686-.09 1.085-.113 1.203 0 .135-.05.234-.142.305-.094.067-.2.1-.32.1h-2.09zM126.217 48.156l-.964 14.036c-.013.252-.11.378-.28.378h-1.402c-.953 0-1.628-.188-2.035-.557-.41-.37-.616-.9-.616-1.593 0-.253.015-.632.044-1.138.023-.507.06-1.1.108-1.783.054-.684.11-1.425.17-2.228.055-.798.124-1.608.188-2.426.067-.818.137-1.632.193-2.44.057-.812.114-1.56.163-2.25h-4.078c-.185 0-.275-.12-.275-.356l.076-1.418c.014-.217.05-.432.114-.643.057-.21.16-.398.29-.57.138-.167.312-.305.523-.405.208-.103.47-.15.78-.15H130.6c.105 0 .2.023.285.075.08.05.127.143.127.28l-.102 1.492c-.04.504-.174.913-.418 1.225-.252.31-.755.47-1.518.47h-2.757z"/><g><path d="M29.25 106.58c-2.06 0-3.76-.133-5.097-.394-1.324-.262-2.387-.643-3.172-1.146-.784-.507-1.332-1.143-1.632-1.905-.296-.764-.443-1.666-.443-2.71 0-.314.015-.76.052-1.332.034-.57.088-1.38.16-2.424.067-1.044.166-2.392.282-4.043.124-1.652.29-3.73.504-6.23.24-3.096.433-5.545.58-7.353.138-1.808.24-3.21.313-4.202.068-.992.11-1.684.136-2.083.012-.402.022-.74.022-1.017 0-.557.006-1.01.026-1.357.016-.35.052-.617.108-.81.048-.187.133-.327.26-.415.126-.086.307-.133.553-.133 2.062-.136 3.823-.24 5.28-.308 1.448-.073 2.718-.11 3.81-.11 2.66 0 4.94.218 6.852.654 1.91.436 3.456 1.053 4.65 1.85 1.187.8 2.063 1.794 2.624 2.974.562 1.18.837 2.523.837 4.017 0 .832-.082 1.693-.255 2.58-.176.887-.475 1.73-.896 2.53-.42.8-.99 1.502-1.71 2.11-.716.61-1.62 1.055-2.707 1.33 2.036.626 3.47 1.66 4.312 3.103.842 1.44 1.256 3.155 1.256 5.137 0 1.602-.255 3.104-.782 4.512-.52 1.406-1.434 2.643-2.727 3.702-1.296 1.06-3.016 1.9-5.156 2.527-2.135.626-4.813.942-8.037.942zm3-16.168c-.383 0-.86.023-1.423.078-.556.052-1.136.13-1.73.233l-.58 8.5c1.26.385 2.402.574 3.416.574 1.086 0 1.963-.155 2.625-.47.666-.313 1.183-.704 1.55-1.173.37-.468.613-.99.74-1.566.122-.573.182-1.1.182-1.588 0-1.287-.36-2.373-1.074-3.26-.727-.886-1.96-1.328-3.706-1.328zM30.044 76.07c-.07.904-.136 1.966-.187 3.183-.057 1.214-.13 2.535-.236 3.964 1.122.278 2.12.415 2.995.415 1.05 0 1.892-.125 2.52-.365.633-.242 1.137-.554 1.497-.937.37-.382.615-.803.735-1.257.124-.45.187-.883.187-1.298 0-1.08-.357-2.01-1.077-2.792-.723-.782-1.953-1.173-3.708-1.173-.38 0-.814.024-1.28.078-.473.05-.96.114-1.446.18zM56.154 106.057c-1.965 0-3.368-.38-4.202-1.148-.844-.763-1.267-1.858-1.267-3.284 0-.695.05-1.888.162-3.572.1-1.688.243-3.608.42-5.765.175-2.157.348-4.434.52-6.833.18-2.396.355-4.656.533-6.777.17-2.123.31-3.982.414-5.582.104-1.596.165-2.695.165-3.285 0-.52.272-.785.835-.785h18.493c.206 0 .4.057.573.16.18.105.265.296.265.573l-.21 3.077c-.068 1.045-.362 1.887-.868 2.53-.504.642-1.547.967-3.127.967h-7.246l-.52 7.35h7.457c.21 0 .404.052.58.16.172.103.258.294.258.573l-.206 3.074c-.07 1.046-.358 1.89-.868 2.532-.51.64-1.552.966-3.127.966h-4.573l-.575 7.767H71.6c.207 0 .397.064.575.186.17.12.26.308.26.546l-.205 3.078c-.074 1.046-.36 1.885-.87 2.53-.508.645-1.545.965-3.127.965h-12.08zM82.463 106.057c-1.955 0-3.357-.38-4.195-1.148-.845-.763-1.26-1.858-1.26-3.284 0-.695.045-1.888.156-3.572.102-1.688.242-3.608.418-5.765.174-2.157.352-4.434.527-6.833.175-2.396.35-4.656.523-6.777.175-2.123.312-3.982.42-5.582.108-1.596.16-2.695.16-3.285 0-.52.27-.785.837-.785h18.494c.204 0 .4.057.576.16.174.105.258.296.258.573l-.206 3.077c-.07 1.045-.362 1.887-.87 2.53-.502.642-1.544.967-3.125.967h-7.243l-.526 7.35h7.456c.21 0 .405.052.58.16.176.103.26.294.26.573l-.212 3.074c-.064 1.046-.355 1.89-.864 2.532-.513.64-1.55.966-3.124.966h-4.572l-.576 7.767H97.91c.208 0 .4.064.582.186.174.12.257.308.257.546l-.205 3.078c-.078 1.046-.36 1.885-.873 2.53-.506.645-1.543.965-3.117.965H82.463zM108.79 106.057c-1.994 0-3.408-.392-4.23-1.175-.822-.782-1.23-1.937-1.23-3.466 0-.42.024-1.122.08-2.112.046-.993.126-2.165.228-3.52.107-1.356.22-2.845.344-4.46.125-1.617.256-3.26.395-4.925.28-3.514.485-6.367.605-8.558.12-2.19.223-3.91.29-5.16.103-1.566.207-2.566.312-3 .106-.433.333-.655.686-.655 1.09 0 2.2-.02 3.333-.075 1.136-.053 2.234-.11 3.28-.183 1.057-.07 2.045-.13 2.968-.184.935-.05 1.77-.077 2.498-.077 2.247 0 4.17.277 5.786.83 1.607.56 2.914 1.34 3.908 2.347 1.003 1.01 1.737 2.228 2.207 3.654.472 1.428.705 3.024.705 4.798 0 2.712-.544 5.13-1.62 7.25-1.09 2.118-2.827 3.735-5.2 4.847l4.405 6.257c.805 1.187 1.423 2.1 1.84 2.74.42.644.633 1.12.633 1.434 0 .244-.145.584-.445 1.017-.298.435-.737.872-1.313 1.305-.58.435-1.28.81-2.106 1.124-.823.31-1.737.468-2.757.468-1.116 0-2.09-.367-2.916-1.096-.82-.73-1.554-1.695-2.203-2.894-.652-1.2-1.213-2.582-1.684-4.15-.473-1.56-.92-3.193-1.336-4.9-1.26-.067-2.295-.188-3.1-.364-.105 1.53-.217 2.99-.318 4.38-.104 1.393-.19 2.633-.26 3.73-.07 1.093-.144 2-.213 2.712-.072.712-.105 1.137-.105 1.277-.038.278-.105.477-.21.6-.105.124-.314.183-.63.183h-2.627zm8.508-29.725c-.418 0-.89.023-1.42.077-.52.05-1.08.112-1.68.183-.068 1.214-.15 2.667-.235 4.354-.083 1.688-.2 3.484-.34 5.396 1.223.28 2.298.42 3.204.42 1.087 0 1.974-.21 2.652-.628.686-.418 1.217-.93 1.6-1.538.387-.608.642-1.26.765-1.957.122-.69.18-1.318.18-1.874 0-1.427-.35-2.523-1.05-3.288-.703-.765-1.926-1.146-3.677-1.146z"/></g></g></svg>