<svg xmlns="http://www.w3.org/2000/svg" width="30" height="30"><path d="M29.427 12.272H15.3v5.804h8.07c-.347 1.875-1.403 3.465-2.99 4.526-1.345.9-3.062 1.43-5.08 1.43-3.907 0-7.214-2.637-8.393-6.183-.3-.9-.47-1.86-.47-2.85s.17-1.95.47-2.85c1.18-3.546 4.486-6.184 8.395-6.184 2.2 0 4.178.757 5.732 2.243l4.3-4.302C22.74 1.486 19.345 0 15.302 0 9.44 0 4.364 3.36 1.897 8.264.88 10.29.3 12.58.3 15s.58 4.71 1.596 6.736C4.363 26.64 9.438 30 15.3 30c4.05 0 7.443-1.342 9.93-3.635 2.833-2.61 4.47-6.456 4.47-11.024 0-1.062-.097-2.086-.273-3.068z" fill="#fff"/></svg>