<svg xmlns="http://www.w3.org/2000/svg" width="30" height="30"><path d="M15 2.703c4.006 0 4.48.015 6.062.087 1.463.066 2.257.31 2.785.516.7.272 1.2.598 1.725 1.122.525.525.85 1.025 1.122 1.725.206.528.45 1.323.517 2.785.073 1.582.09 2.056.09 6.06 0 4.007-.017 4.48-.09 6.063-.065 1.464-.31 2.258-.516 2.786-.27.7-.597 1.2-1.122 1.725-.524.526-1.024.852-1.725 1.123-.528.206-1.322.45-2.785.517-1.58.072-2.056.088-6.062.088-4.005 0-4.48-.016-6.06-.088-1.463-.066-2.258-.31-2.786-.517-.7-.27-1.2-.597-1.725-1.122-.525-.523-.85-1.023-1.123-1.724-.205-.528-.45-1.322-.516-2.785-.072-1.58-.087-2.054-.087-6.06 0-4.005.015-4.48.087-6.06.066-1.463.31-2.258.516-2.786.272-.7.598-1.2 1.122-1.725.525-.525 1.025-.85 1.725-1.123.528-.205 1.323-.45 2.785-.516 1.583-.072 2.057-.087 6.062-.087M15 0c-4.074 0-4.584.018-6.184.09C7.22.163 6.13.417 5.176.788c-.987.383-1.824.896-2.658 1.73-.833.834-1.347 1.67-1.73 2.657C.418 6.13.163 7.22.09 8.815.018 10.416 0 10.926 0 15c0 4.074.018 4.585.09 6.185.073 1.597.327 2.688.697 3.642.383.986.896 1.822 1.73 2.656.834.834 1.67 1.347 2.657 1.73.954.37 2.044.624 3.64.697 1.602.073 2.112.09 6.186.09s4.585-.017 6.185-.09c1.597-.073 2.688-.326 3.642-.697.986-.384 1.822-.896 2.656-1.73.834-.834 1.347-1.67 1.73-2.656.37-.954.624-2.045.697-3.642.073-1.6.09-2.11.09-6.185 0-4.074-.017-4.584-.09-6.184-.073-1.597-.326-2.687-.697-3.64-.384-.987-.896-1.824-1.73-2.658-.834-.833-1.67-1.347-2.656-1.73-.954-.37-2.045-.625-3.642-.697C19.585.02 19.075 0 15 0z"/><path d="M15 7.297c-4.254 0-7.703 3.45-7.703 7.703 0 4.254 3.45 7.703 7.703 7.703 4.254 0 7.703-3.45 7.703-7.703 0-4.254-3.45-7.703-7.703-7.703zM15 20c-2.76 0-5-2.238-5-5 0-2.76 2.24-5 5-5 2.762 0 5 2.24 5 5 0 2.762-2.238 5-5 5z"/><circle cx="23.007" cy="6.993" r="1.8"/></svg>