<svg xmlns="http://www.w3.org/2000/svg" width="20" height="20"><path d="M10 20c-2.67 0-5.182-1.04-7.07-2.928C1.04 15.182 0 12.672 0 10c0-2.67 1.04-5.182 2.93-7.07C4.816 1.04 7.33 0 10 0c2.672 0 5.182 1.04 7.07 2.93C18.96 4.817 20 7.33 20 10c0 2.672-1.04 5.183-2.93 7.072C15.182 18.962 12.672 20 10 20zm0-18.076c-4.453 0-8.077 3.622-8.077 8.076 0 4.455 3.624 8.077 8.077 8.077 4.454 0 8.077-3.622 8.077-8.077 0-4.454-3.624-8.076-8.077-8.076z"/><path d="M9.04 10.483V3.505h1.92v6.013l3.44 2.562-1.148 1.543"/></svg>