<svg xmlns="http://www.w3.org/2000/svg" width="20" height="20"><path d="M19.764 12.13c.15-.696.236-1.408.236-2.13s-.085-1.433-.236-2.13h.093l-.43-1.21v-.003l-.215-.605h-.027C17.617 2.408 14.008 0 10 0 5.993 0 2.383 2.408.815 6.052H.788l-.214.606-.43 1.212h.094C.085 8.567 0 9.28 0 10c0 .722.085 1.433.237 2.13H.144l.43 1.213.214.605h.027C2.383 17.592 5.993 20 10 20c4.008 0 7.617-2.408 9.185-6.052h.027l.215-.604c0-.002 0-.005.002-.008l.427-1.206h-.093zM18.182 10c0 .725-.094 1.44-.28 2.13h-3.447c.068-.705.106-1.42.106-2.13s-.037-1.424-.105-2.13h3.447c.186.692.28 1.405.28 2.13zM10 18.182c-.784 0-1.816-1.572-2.363-4.233h4.726c-.548 2.66-1.58 4.232-2.363 4.232zM7.365 12.13c-.067-.667-.108-1.375-.108-2.13 0-.755.04-1.462.107-2.13h5.27c.066.667.107 1.375.107 2.13 0 .755-.04 1.463-.106 2.13h-5.27zM10 1.818c.784 0 1.815 1.573 2.363 4.234H7.637c.547-2.66 1.58-4.234 2.363-4.234zm7.168 4.234h-2.97c-.254-1.365-.642-2.624-1.16-3.636 1.737.697 3.21 1.97 4.13 3.636zM6.962 2.416C6.442 3.43 6.056 4.688 5.8 6.052H2.832c.92-1.666 2.393-2.938 4.13-3.636zM1.818 10c0-.724.094-1.438.28-2.13h3.446c-.066.706-.105 1.42-.105 2.13s.038 1.425.105 2.13H2.1c-.188-.692-.282-1.405-.282-2.13zm1.014 3.948H5.8c.255 1.364.643 2.623 1.162 3.636-1.737-.698-3.21-1.97-4.13-3.636zm10.206 3.636c.52-1.013.906-2.27 1.16-3.636h2.97c-.92 1.666-2.393 2.94-4.13 3.636z"/></svg>